<mxfile host="app.diagrams.net" agent="Mozilla/5.0 (Windows NT 10.0; Win64; x64; rv:142.0) Gecko/20100101 Firefox/142.0" version="28.1.2">
  <diagram name="Page-1" id="_E8ELYtHnHAGCjDZnW66">
    <mxGraphModel dx="772" dy="468" grid="1" gridSize="10" guides="1" tooltips="1" connect="1" arrows="1" fold="1" page="1" pageScale="1" pageWidth="850" pageHeight="1100" math="0" shadow="0">
      <root>
        <mxCell id="0" />
        <mxCell id="1" parent="0" />
        <mxCell id="5BmA53OhYEYzgZZ_0BUa-3" value="" style="rounded=0;whiteSpace=wrap;html=1;" vertex="1" parent="1">
          <mxGeometry x="220" y="316" width="40" height="20" as="geometry" />
        </mxCell>
        <mxCell id="5BmA53OhYEYzgZZ_0BUa-5" value="" style="endArrow=none;html=1;rounded=0;exitX=1;exitY=0.5;exitDx=0;exitDy=0;" edge="1" parent="1" source="5BmA53OhYEYzgZZ_0BUa-3">
          <mxGeometry width="50" height="50" relative="1" as="geometry">
            <mxPoint x="250" y="356" as="sourcePoint" />
            <mxPoint x="310" y="326" as="targetPoint" />
          </mxGeometry>
        </mxCell>
        <mxCell id="5BmA53OhYEYzgZZ_0BUa-7" value="" style="endArrow=none;html=1;rounded=0;" edge="1" parent="1">
          <mxGeometry width="50" height="50" relative="1" as="geometry">
            <mxPoint x="240" y="266" as="sourcePoint" />
            <mxPoint x="240" y="266" as="targetPoint" />
          </mxGeometry>
        </mxCell>
        <mxCell id="5BmA53OhYEYzgZZ_0BUa-13" value="" style="endArrow=none;html=1;rounded=0;" edge="1" parent="1">
          <mxGeometry width="50" height="50" relative="1" as="geometry">
            <mxPoint x="240" y="366" as="sourcePoint" />
            <mxPoint x="240" y="336" as="targetPoint" />
          </mxGeometry>
        </mxCell>
        <mxCell id="5BmA53OhYEYzgZZ_0BUa-15" value="" style="endArrow=none;html=1;rounded=0;exitX=0.5;exitY=0;exitDx=0;exitDy=0;" edge="1" parent="1" source="5BmA53OhYEYzgZZ_0BUa-3">
          <mxGeometry width="50" height="50" relative="1" as="geometry">
            <mxPoint x="340" y="376" as="sourcePoint" />
            <mxPoint x="240" y="286" as="targetPoint" />
          </mxGeometry>
        </mxCell>
        <mxCell id="5BmA53OhYEYzgZZ_0BUa-17" value="" style="endArrow=none;html=1;rounded=0;" edge="1" parent="1">
          <mxGeometry width="50" height="50" relative="1" as="geometry">
            <mxPoint x="290" y="346" as="sourcePoint" />
            <mxPoint x="330" y="306" as="targetPoint" />
          </mxGeometry>
        </mxCell>
        <mxCell id="5BmA53OhYEYzgZZ_0BUa-18" value="" style="endArrow=none;html=1;rounded=0;" edge="1" parent="1" source="5BmA53OhYEYzgZZ_0BUa-34">
          <mxGeometry width="50" height="50" relative="1" as="geometry">
            <mxPoint x="240" y="246" as="sourcePoint" />
            <mxPoint x="240" y="286" as="targetPoint" />
          </mxGeometry>
        </mxCell>
        <mxCell id="5BmA53OhYEYzgZZ_0BUa-19" value="" style="endArrow=none;html=1;rounded=0;" edge="1" parent="1">
          <mxGeometry width="50" height="50" relative="1" as="geometry">
            <mxPoint x="240" y="406" as="sourcePoint" />
            <mxPoint x="240" y="366" as="targetPoint" />
          </mxGeometry>
        </mxCell>
        <mxCell id="5BmA53OhYEYzgZZ_0BUa-20" value="" style="endArrow=none;html=1;rounded=0;" edge="1" parent="1">
          <mxGeometry width="50" height="50" relative="1" as="geometry">
            <mxPoint x="290" y="406" as="sourcePoint" />
            <mxPoint x="290" y="346" as="targetPoint" />
          </mxGeometry>
        </mxCell>
        <mxCell id="5BmA53OhYEYzgZZ_0BUa-21" value="" style="endArrow=none;html=1;rounded=0;" edge="1" parent="1" source="5BmA53OhYEYzgZZ_0BUa-36">
          <mxGeometry width="50" height="50" relative="1" as="geometry">
            <mxPoint x="290" y="306" as="sourcePoint" />
            <mxPoint x="290" y="246" as="targetPoint" />
          </mxGeometry>
        </mxCell>
        <mxCell id="5BmA53OhYEYzgZZ_0BUa-26" value="" style="rounded=0;whiteSpace=wrap;html=1;" vertex="1" parent="1">
          <mxGeometry x="180" y="306" width="20" height="40" as="geometry" />
        </mxCell>
        <mxCell id="5BmA53OhYEYzgZZ_0BUa-28" value="" style="endArrow=none;html=1;rounded=0;entryX=0.5;entryY=0;entryDx=0;entryDy=0;" edge="1" parent="1" target="5BmA53OhYEYzgZZ_0BUa-26">
          <mxGeometry width="50" height="50" relative="1" as="geometry">
            <mxPoint x="190" y="286" as="sourcePoint" />
            <mxPoint x="390" y="326" as="targetPoint" />
          </mxGeometry>
        </mxCell>
        <mxCell id="5BmA53OhYEYzgZZ_0BUa-29" value="" style="endArrow=none;html=1;rounded=0;" edge="1" parent="1">
          <mxGeometry width="50" height="50" relative="1" as="geometry">
            <mxPoint x="190" y="286" as="sourcePoint" />
            <mxPoint x="240" y="286" as="targetPoint" />
          </mxGeometry>
        </mxCell>
        <mxCell id="5BmA53OhYEYzgZZ_0BUa-32" value="" style="endArrow=none;html=1;rounded=0;entryX=0.5;entryY=1;entryDx=0;entryDy=0;" edge="1" parent="1" target="5BmA53OhYEYzgZZ_0BUa-26">
          <mxGeometry width="50" height="50" relative="1" as="geometry">
            <mxPoint x="190" y="366" as="sourcePoint" />
            <mxPoint x="390" y="326" as="targetPoint" />
          </mxGeometry>
        </mxCell>
        <mxCell id="5BmA53OhYEYzgZZ_0BUa-33" value="" style="endArrow=none;html=1;rounded=0;" edge="1" parent="1">
          <mxGeometry width="50" height="50" relative="1" as="geometry">
            <mxPoint x="190" y="366" as="sourcePoint" />
            <mxPoint x="240" y="366" as="targetPoint" />
          </mxGeometry>
        </mxCell>
        <mxCell id="5BmA53OhYEYzgZZ_0BUa-35" value="" style="endArrow=none;html=1;rounded=0;" edge="1" parent="1" target="5BmA53OhYEYzgZZ_0BUa-34">
          <mxGeometry width="50" height="50" relative="1" as="geometry">
            <mxPoint x="240" y="246" as="sourcePoint" />
            <mxPoint x="240" y="286" as="targetPoint" />
          </mxGeometry>
        </mxCell>
        <mxCell id="5BmA53OhYEYzgZZ_0BUa-34" value="" style="ellipse;whiteSpace=wrap;html=1;aspect=fixed;" vertex="1" parent="1">
          <mxGeometry x="235" y="234" width="10" height="10" as="geometry" />
        </mxCell>
        <mxCell id="5BmA53OhYEYzgZZ_0BUa-39" value="" style="endArrow=none;html=1;rounded=0;" edge="1" parent="1" target="5BmA53OhYEYzgZZ_0BUa-36">
          <mxGeometry width="50" height="50" relative="1" as="geometry">
            <mxPoint x="290" y="306" as="sourcePoint" />
            <mxPoint x="290" y="246" as="targetPoint" />
          </mxGeometry>
        </mxCell>
        <mxCell id="5BmA53OhYEYzgZZ_0BUa-36" value="" style="ellipse;whiteSpace=wrap;html=1;aspect=fixed;" vertex="1" parent="1">
          <mxGeometry x="285" y="235" width="10" height="10" as="geometry" />
        </mxCell>
        <mxCell id="5BmA53OhYEYzgZZ_0BUa-41" value="" style="ellipse;whiteSpace=wrap;html=1;aspect=fixed;" vertex="1" parent="1">
          <mxGeometry x="235" y="405" width="10" height="10" as="geometry" />
        </mxCell>
        <mxCell id="5BmA53OhYEYzgZZ_0BUa-42" value="" style="ellipse;whiteSpace=wrap;html=1;aspect=fixed;" vertex="1" parent="1">
          <mxGeometry x="285" y="405" width="10" height="10" as="geometry" />
        </mxCell>
        <mxCell id="5BmA53OhYEYzgZZ_0BUa-43" value="" style="endArrow=none;html=1;rounded=0;" edge="1" parent="1">
          <mxGeometry width="50" height="50" relative="1" as="geometry">
            <mxPoint x="223" y="336" as="sourcePoint" />
            <mxPoint x="243" y="316" as="targetPoint" />
          </mxGeometry>
        </mxCell>
        <mxCell id="5BmA53OhYEYzgZZ_0BUa-44" value="" style="endArrow=none;html=1;rounded=0;" edge="1" parent="1">
          <mxGeometry width="50" height="50" relative="1" as="geometry">
            <mxPoint x="234" y="336" as="sourcePoint" />
            <mxPoint x="254" y="316" as="targetPoint" />
          </mxGeometry>
        </mxCell>
        <mxCell id="5BmA53OhYEYzgZZ_0BUa-93" value="&lt;font style=&quot;font-size: 9px;&quot;&gt;30&lt;/font&gt;" style="text;html=1;align=center;verticalAlign=middle;whiteSpace=wrap;rounded=0;" vertex="1" parent="1">
          <mxGeometry x="275" y="391" width="15" height="14" as="geometry" />
        </mxCell>
        <mxCell id="5BmA53OhYEYzgZZ_0BUa-94" value="&lt;font style=&quot;font-size: 9px;&quot;&gt;85&lt;/font&gt;" style="text;html=1;align=center;verticalAlign=middle;whiteSpace=wrap;rounded=0;" vertex="1" parent="1">
          <mxGeometry x="241" y="391" width="15" height="14" as="geometry" />
        </mxCell>
        <mxCell id="5BmA53OhYEYzgZZ_0BUa-100" value="&lt;div&gt;&lt;font style=&quot;font-size: 9px;&quot;&gt;87&lt;/font&gt;&lt;/div&gt;" style="text;html=1;align=center;verticalAlign=middle;whiteSpace=wrap;rounded=0;" vertex="1" parent="1">
          <mxGeometry x="278" y="246" width="10" height="8" as="geometry" />
        </mxCell>
        <mxCell id="5BmA53OhYEYzgZZ_0BUa-101" value="&lt;font style=&quot;font-size: 9px;&quot;&gt;86&lt;/font&gt;" style="text;html=1;align=center;verticalAlign=middle;whiteSpace=wrap;rounded=0;" vertex="1" parent="1">
          <mxGeometry x="242" y="247" width="10" height="8" as="geometry" />
        </mxCell>
        <mxCell id="5BmA53OhYEYzgZZ_0BUa-103" value="" style="rounded=0;whiteSpace=wrap;html=1;" vertex="1" parent="1">
          <mxGeometry x="440" y="316" width="40" height="20" as="geometry" />
        </mxCell>
        <mxCell id="5BmA53OhYEYzgZZ_0BUa-104" value="" style="endArrow=none;html=1;rounded=0;exitX=1;exitY=0.5;exitDx=0;exitDy=0;" edge="1" parent="1" source="5BmA53OhYEYzgZZ_0BUa-103">
          <mxGeometry width="50" height="50" relative="1" as="geometry">
            <mxPoint x="470" y="356" as="sourcePoint" />
            <mxPoint x="530" y="326" as="targetPoint" />
          </mxGeometry>
        </mxCell>
        <mxCell id="5BmA53OhYEYzgZZ_0BUa-105" value="" style="endArrow=none;html=1;rounded=0;" edge="1" parent="1">
          <mxGeometry width="50" height="50" relative="1" as="geometry">
            <mxPoint x="460" y="266" as="sourcePoint" />
            <mxPoint x="460" y="266" as="targetPoint" />
          </mxGeometry>
        </mxCell>
        <mxCell id="5BmA53OhYEYzgZZ_0BUa-106" value="" style="endArrow=none;html=1;rounded=0;" edge="1" parent="1">
          <mxGeometry width="50" height="50" relative="1" as="geometry">
            <mxPoint x="460" y="366" as="sourcePoint" />
            <mxPoint x="460" y="336" as="targetPoint" />
          </mxGeometry>
        </mxCell>
        <mxCell id="5BmA53OhYEYzgZZ_0BUa-107" value="" style="endArrow=none;html=1;rounded=0;exitX=0.5;exitY=0;exitDx=0;exitDy=0;" edge="1" parent="1" source="5BmA53OhYEYzgZZ_0BUa-103">
          <mxGeometry width="50" height="50" relative="1" as="geometry">
            <mxPoint x="560" y="376" as="sourcePoint" />
            <mxPoint x="460" y="286" as="targetPoint" />
          </mxGeometry>
        </mxCell>
        <mxCell id="5BmA53OhYEYzgZZ_0BUa-108" value="" style="endArrow=none;html=1;rounded=0;" edge="1" parent="1">
          <mxGeometry width="50" height="50" relative="1" as="geometry">
            <mxPoint x="510" y="346" as="sourcePoint" />
            <mxPoint x="550" y="306" as="targetPoint" />
          </mxGeometry>
        </mxCell>
        <mxCell id="5BmA53OhYEYzgZZ_0BUa-109" value="" style="endArrow=none;html=1;rounded=0;" edge="1" parent="1" source="5BmA53OhYEYzgZZ_0BUa-119">
          <mxGeometry width="50" height="50" relative="1" as="geometry">
            <mxPoint x="460" y="246" as="sourcePoint" />
            <mxPoint x="460" y="286" as="targetPoint" />
          </mxGeometry>
        </mxCell>
        <mxCell id="5BmA53OhYEYzgZZ_0BUa-110" value="" style="endArrow=none;html=1;rounded=0;" edge="1" parent="1">
          <mxGeometry width="50" height="50" relative="1" as="geometry">
            <mxPoint x="460" y="406" as="sourcePoint" />
            <mxPoint x="460" y="366" as="targetPoint" />
          </mxGeometry>
        </mxCell>
        <mxCell id="5BmA53OhYEYzgZZ_0BUa-111" value="" style="endArrow=none;html=1;rounded=0;" edge="1" parent="1">
          <mxGeometry width="50" height="50" relative="1" as="geometry">
            <mxPoint x="510" y="406" as="sourcePoint" />
            <mxPoint x="510" y="346" as="targetPoint" />
          </mxGeometry>
        </mxCell>
        <mxCell id="5BmA53OhYEYzgZZ_0BUa-112" value="" style="endArrow=none;html=1;rounded=0;" edge="1" parent="1" source="5BmA53OhYEYzgZZ_0BUa-121">
          <mxGeometry width="50" height="50" relative="1" as="geometry">
            <mxPoint x="510" y="306" as="sourcePoint" />
            <mxPoint x="510" y="246" as="targetPoint" />
          </mxGeometry>
        </mxCell>
        <mxCell id="5BmA53OhYEYzgZZ_0BUa-113" value="" style="rounded=0;whiteSpace=wrap;html=1;" vertex="1" parent="1">
          <mxGeometry x="400" y="306" width="20" height="40" as="geometry" />
        </mxCell>
        <mxCell id="5BmA53OhYEYzgZZ_0BUa-114" value="" style="endArrow=none;html=1;rounded=0;entryX=0.5;entryY=0;entryDx=0;entryDy=0;" edge="1" parent="1" target="5BmA53OhYEYzgZZ_0BUa-113">
          <mxGeometry width="50" height="50" relative="1" as="geometry">
            <mxPoint x="410" y="286" as="sourcePoint" />
            <mxPoint x="610" y="326" as="targetPoint" />
          </mxGeometry>
        </mxCell>
        <mxCell id="5BmA53OhYEYzgZZ_0BUa-115" value="" style="endArrow=none;html=1;rounded=0;" edge="1" parent="1">
          <mxGeometry width="50" height="50" relative="1" as="geometry">
            <mxPoint x="410" y="286" as="sourcePoint" />
            <mxPoint x="460" y="286" as="targetPoint" />
          </mxGeometry>
        </mxCell>
        <mxCell id="5BmA53OhYEYzgZZ_0BUa-116" value="" style="endArrow=none;html=1;rounded=0;entryX=0.5;entryY=1;entryDx=0;entryDy=0;" edge="1" parent="1" target="5BmA53OhYEYzgZZ_0BUa-113">
          <mxGeometry width="50" height="50" relative="1" as="geometry">
            <mxPoint x="410" y="366" as="sourcePoint" />
            <mxPoint x="610" y="326" as="targetPoint" />
          </mxGeometry>
        </mxCell>
        <mxCell id="5BmA53OhYEYzgZZ_0BUa-117" value="" style="endArrow=none;html=1;rounded=0;" edge="1" parent="1">
          <mxGeometry width="50" height="50" relative="1" as="geometry">
            <mxPoint x="410" y="366" as="sourcePoint" />
            <mxPoint x="460" y="366" as="targetPoint" />
          </mxGeometry>
        </mxCell>
        <mxCell id="5BmA53OhYEYzgZZ_0BUa-118" value="" style="endArrow=none;html=1;rounded=0;" edge="1" parent="1" target="5BmA53OhYEYzgZZ_0BUa-119">
          <mxGeometry width="50" height="50" relative="1" as="geometry">
            <mxPoint x="460" y="246" as="sourcePoint" />
            <mxPoint x="460" y="286" as="targetPoint" />
          </mxGeometry>
        </mxCell>
        <mxCell id="5BmA53OhYEYzgZZ_0BUa-119" value="" style="ellipse;whiteSpace=wrap;html=1;aspect=fixed;" vertex="1" parent="1">
          <mxGeometry x="455" y="234" width="10" height="10" as="geometry" />
        </mxCell>
        <mxCell id="5BmA53OhYEYzgZZ_0BUa-120" value="" style="endArrow=none;html=1;rounded=0;" edge="1" parent="1" target="5BmA53OhYEYzgZZ_0BUa-121">
          <mxGeometry width="50" height="50" relative="1" as="geometry">
            <mxPoint x="510" y="306" as="sourcePoint" />
            <mxPoint x="510" y="246" as="targetPoint" />
          </mxGeometry>
        </mxCell>
        <mxCell id="5BmA53OhYEYzgZZ_0BUa-121" value="" style="ellipse;whiteSpace=wrap;html=1;aspect=fixed;" vertex="1" parent="1">
          <mxGeometry x="505" y="235" width="10" height="10" as="geometry" />
        </mxCell>
        <mxCell id="5BmA53OhYEYzgZZ_0BUa-122" value="" style="ellipse;whiteSpace=wrap;html=1;aspect=fixed;" vertex="1" parent="1">
          <mxGeometry x="455" y="405" width="10" height="10" as="geometry" />
        </mxCell>
        <mxCell id="5BmA53OhYEYzgZZ_0BUa-123" value="" style="ellipse;whiteSpace=wrap;html=1;aspect=fixed;" vertex="1" parent="1">
          <mxGeometry x="505" y="405" width="10" height="10" as="geometry" />
        </mxCell>
        <mxCell id="5BmA53OhYEYzgZZ_0BUa-124" value="" style="endArrow=none;html=1;rounded=0;" edge="1" parent="1">
          <mxGeometry width="50" height="50" relative="1" as="geometry">
            <mxPoint x="443" y="336" as="sourcePoint" />
            <mxPoint x="463" y="316" as="targetPoint" />
          </mxGeometry>
        </mxCell>
        <mxCell id="5BmA53OhYEYzgZZ_0BUa-125" value="" style="endArrow=none;html=1;rounded=0;" edge="1" parent="1">
          <mxGeometry width="50" height="50" relative="1" as="geometry">
            <mxPoint x="454" y="336" as="sourcePoint" />
            <mxPoint x="474" y="316" as="targetPoint" />
          </mxGeometry>
        </mxCell>
        <mxCell id="5BmA53OhYEYzgZZ_0BUa-126" value="&lt;font style=&quot;font-size: 9px;&quot;&gt;30&lt;/font&gt;" style="text;html=1;align=center;verticalAlign=middle;whiteSpace=wrap;rounded=0;" vertex="1" parent="1">
          <mxGeometry x="495" y="391" width="15" height="14" as="geometry" />
        </mxCell>
        <mxCell id="5BmA53OhYEYzgZZ_0BUa-127" value="&lt;font style=&quot;font-size: 9px;&quot;&gt;85&lt;/font&gt;" style="text;html=1;align=center;verticalAlign=middle;whiteSpace=wrap;rounded=0;" vertex="1" parent="1">
          <mxGeometry x="461" y="391" width="15" height="14" as="geometry" />
        </mxCell>
        <mxCell id="5BmA53OhYEYzgZZ_0BUa-128" value="&lt;div&gt;&lt;font style=&quot;font-size: 9px;&quot;&gt;87&lt;/font&gt;&lt;/div&gt;" style="text;html=1;align=center;verticalAlign=middle;whiteSpace=wrap;rounded=0;" vertex="1" parent="1">
          <mxGeometry x="498" y="246" width="10" height="8" as="geometry" />
        </mxCell>
        <mxCell id="5BmA53OhYEYzgZZ_0BUa-129" value="&lt;font style=&quot;font-size: 9px;&quot;&gt;86&lt;/font&gt;" style="text;html=1;align=center;verticalAlign=middle;whiteSpace=wrap;rounded=0;" vertex="1" parent="1">
          <mxGeometry x="462" y="247" width="10" height="8" as="geometry" />
        </mxCell>
      </root>
    </mxGraphModel>
  </diagram>
</mxfile>
